<svg xmlns="http://www.w3.org/2000/svg" xmlns:xlink="http://www.w3.org/1999/xlink" viewBox="0 0 739.05 809.5"><defs><style>.cls-1,.cls-16{fill:none;}.cls-2{fill:#eff0f2;}.cls-3{fill:#4285f4;}.cls-4{fill:#4688f1;}.cls-5{fill:#3566b8;}.cls-11,.cls-6{fill:#fff;}.cls-7{clip-path:url(#clip-path);}.cls-8{fill:url(#Adsız_degrade);}.cls-9{fill:#dfe1e5;}.cls-10{fill:#babfc5;}.cls-11,.cls-14{opacity:0.5;isolation:isolate;}.cls-12{fill:url(#Adsız_degrade_4);}.cls-13{fill:#ea4335;}.cls-14{fill:url(#Adsız_degrade_3);}.cls-15{fill:#bbbfc3;}.cls-16{stroke:#babfc5;stroke-linecap:round;stroke-linejoin:round;stroke-width:5px;}.cls-17{fill:#34a853;}.cls-18{fill:url(#Adsız_degrade_4-2);}.cls-19{fill:#fabb05;}.cls-20{fill:#eda606;}.cls-21{fill:#23893c;}.cls-22{fill:#cdd0d5;}</style><clipPath id="clip-path"><circle class="cls-1" cx="398.44" cy="308.56" r="175.13"/></clipPath><linearGradient id="Adsız_degrade" x1="373.43" y1="14.44" x2="373.43" y2="-68.59" gradientTransform="matrix(1, 0, 0, -1, 0, 743.28)" gradientUnits="userSpaceOnUse"><stop offset="0" stop-color="#676c72" stop-opacity="0.3"/><stop offset="0.96" stop-color="#f9f9fa" stop-opacity="0.01"/><stop offset="1" stop-color="#fff" stop-opacity="0"/></linearGradient><linearGradient id="Adsız_degrade_4" x1="443.3" y1="97.55" x2="525.88" y2="97.55" gradientTransform="matrix(1, 0, 0, -1, 0, 743.28)" gradientUnits="userSpaceOnUse"><stop offset="0" stop-color="#676c72" stop-opacity="0.7"/><stop offset="0.27" stop-color="#70767c" stop-opacity="0.58"/><stop offset="0.77" stop-color="#888f97" stop-opacity="0.26"/><stop offset="1" stop-color="#959ca5" stop-opacity="0.1"/></linearGradient><linearGradient id="Adsız_degrade_3" x1="512.87" y1="114.64" x2="561.65" y2="149.15" gradientTransform="matrix(1, 0, 0, -1, -0.1, 743.5)" gradientUnits="userSpaceOnUse"><stop offset="0" stop-color="#ea4335"/><stop offset="1" stop-color="#fff"/></linearGradient><linearGradient id="Adsız_degrade_4-2" x1="340.66" y1="97.91" x2="416.45" y2="97.91" xlink:href="#Adsız_degrade_4"/></defs><g id="katman_2"><g id="katman_1-2"><path class="cls-2" d="M356.9,242.39h-1.2A6,6,0,0,0,356.9,242.39Z"/><path class="cls-3" d="M722.93,508.52h0Z"/><path class="cls-4" d="M691.9,275.44V84.14L400.48,0,109,84.14v191.3S98,612,400.48,743.18C702.92,612,691.9,275.44,691.9,275.44Z"/><circle class="cls-5" cx="398.44" cy="308.56" r="175.13"/><circle class="cls-6" cx="398.44" cy="247.3" r="66.74"/><g class="cls-7"><path class="cls-6" d="M398.48,496.46A160.21,160.21,0,0,1,265,424.83c.48-44.19,89.06-68.52,133.48-68.52s132.77,24.33,133.44,68.52A160.21,160.21,0,0,1,398.48,496.46Z"/></g><path class="cls-8" d="M7.81,741V725h431.4l215.09.33,84.75,84.13h-571l-46.92-46.92-78.24-.35a32.77,32.77,0,0,1-22.5-9.1Z"/><path class="cls-9" d="M599.06,730.27l56.82,10a14,14,0,0,0,16.43-13.79V554.79a14,14,0,0,0-14-14,14.16,14.16,0,0,0-2.43.21l-56.82,10Zm-134.87,2,61.69,10.89V538.1L464.19,549a14,14,0,0,0-11.56,13.79V718.52a14,14,0,0,0,11.56,13.79Z"/><path class="cls-10" d="M525.88,743.2l73.25-12.93V551L525.88,538.1V743.2Z"/><path class="cls-6" d="M599.06,712.51,644.63,719a8,8,0,0,0,9-6.79,8.47,8.47,0,0,0,.08-1.13V570.26a8,8,0,0,0-8-8,8.47,8.47,0,0,0-1.13.08l-45.58,6.46Zm-123.9,3.19,50.72,7.18V558.42l-50.72,7.22a8,8,0,0,0-6.88,7.92V707.78A8,8,0,0,0,475.16,715.7Z"/><path class="cls-11" d="M525.88,722.88l73.25-10.37V568.79l-73.25-10.38Z"/><path class="cls-12" d="M468.27,548.27l-4.08.72a14,14,0,0,0-11.56,13.79V718.52a14,14,0,0,0,11.56,13.79l61.69,10.89V605.87Z"/><ellipse class="cls-13" cx="564.37" cy="573.95" rx="52.69" ry="53.06"/><path class="cls-6" d="M564.38,552.64a21.37,21.37,0,0,1,14.94,36.43,20.92,20.92,0,0,1-15,6.25,21.36,21.36,0,0,1-14.84-36.46,20.92,20.92,0,0,1,14.89-6.22m0-5A26.34,26.34,0,1,0,590.7,574,26.35,26.35,0,0,0,564.37,547.64Z"/><path class="cls-13" d="M564.4,674.62l-45.26-73.43,90.8-.8Z"/><path class="cls-14" d="M564.53,521.06a53.15,53.15,0,0,0-45.2,80.3l45.25,73.43,42.93-70a53.11,53.11,0,0,0-43-83.76Z"/><rect class="cls-15" x="349.16" y="510.73" width="119.59" height="232.44" rx="18" transform="translate(-3.71 2.44) rotate(-0.34)"/><rect class="cls-9" x="341.14" y="510.72" width="119.59" height="232.53" rx="18" transform="translate(-3.71 2.39) rotate(-0.34)"/><path class="cls-16" d="M382.92,523h40"/><path class="cls-6" d="M440.07,725H362.42a11.62,11.62,0,0,1-11.62-11.62h0l-.32-168.19a11.63,11.63,0,0,1,11.62-11.63h77.65a11.63,11.63,0,0,1,11.63,11.63h0l.31,168.19A11.62,11.62,0,0,1,440.08,725Z"/><path class="cls-17" d="M472.11,662.75a27.09,27.09,0,0,0-11.36-31.66l.12,20.41Z"/><path class="cls-4" d="M350.48,553.39v-6.12l-9.82.14.1,16.36A29.05,29.05,0,0,1,350.48,553.39Zm-13.37,24.5a28.86,28.86,0,0,0,3.82,14.4l-.17-28.52A29,29,0,0,0,337.11,577.89Z"/><path class="cls-4" d="M350.48,602.37v-49a29.05,29.05,0,0,0-9.72,10.38l.17,28.52A29.32,29.32,0,0,0,350.48,602.37Z"/><path class="cls-18" d="M356.55,547.19l-15.89.22,1.06,178.23a18,18,0,0,0,18.1,17.9h0l56.63-.2V621.72a35.29,35.29,0,0,0-10.34-25Z"/><path class="cls-19" d="M337.11,577.89a28.86,28.86,0,0,0,3.82,14.4l-.17-28.52A29,29,0,0,0,337.11,577.89Z"/><path class="cls-6" d="M416.78,572.47a2.5,2.5,0,0,0,0-5h-39.9l5,5Z"/><path class="cls-19" d="M414.79,548.74H366.24a29.14,29.14,0,0,0-6.76,57.49v15.41L374,607.07h40.72a29.13,29.13,0,0,0,29.13-29.13h0a29.12,29.12,0,0,0-29.05-29.19Z"/><path class="cls-20" d="M359.48,606.23v15.41L374,607.07H413.2a35.32,35.32,0,0,0-7.13-10.27L359,549.64a29.22,29.22,0,0,0-18.26,14.12l.17,28.52A29.14,29.14,0,0,0,359.48,606.23Z"/><path class="cls-17" d="M446.08,626.87H408.42A27.34,27.34,0,0,0,381,654.11v0a27.33,27.33,0,0,0,27.44,27.24h29.06l13.94,13.87V680.86a27.23,27.23,0,0,0-5.3-54Z"/><path class="cls-21" d="M408.42,626.88a27.25,27.25,0,1,0,0,54.5h8v-54.5Z"/><path class="cls-6" d="M447,657H406.28a2.5,2.5,0,0,1,0-5H447a2.5,2.5,0,0,1,0,5Zm-30.19-73h-47.7a2.5,2.5,0,1,0,0,5h47.7a2.5,2.5,0,0,0,0-5Zm-47.7-11.51h47.7a2.5,2.5,0,0,0,0-5h-47.7a2.5,2.5,0,1,0,0,5Z"/><path class="cls-9" d="M406.28,652a2.5,2.5,0,0,0,0,5h10.2v-5ZM366.6,586.49a2.48,2.48,0,0,0,2.48,2.48h29.25l-5-5H369.08a2.48,2.48,0,0,0-2.48,2.48Zm0-16.49a2.48,2.48,0,0,0,2.48,2.48h12.76l-5-5H369A2.48,2.48,0,0,0,366.6,570Z"/><path class="cls-15" d="M126.86,539.24H341.62a18,18,0,0,1,18,18V725H126.86a18,18,0,0,1-18-18V557.24A18,18,0,0,1,126.86,539.24Z"/><path class="cls-9" d="M120.85,539.24H335.62a18,18,0,0,1,18,18V725H102.85V557.24A18,18,0,0,1,120.85,539.24Z"/><rect class="cls-6" x="113.47" y="550.33" width="229.56" height="163.73" rx="8.19"/><path class="cls-15" d="M359.64,724.94,101.16,725v19.29H341.64a18,18,0,0,0,18-18Z"/><circle class="cls-13" cx="230.49" cy="632.73" r="45.3"/><path class="cls-6" d="M221.68,610l31.26,22.4-31.25,23V610m-.15-5.15a4.91,4.91,0,0,0-2.22.54,4.85,4.85,0,0,0-2.63,4.32v46a4.86,4.86,0,0,0,4.85,4.85,4.92,4.92,0,0,0,2.88-1l31.65-23.3a4.85,4.85,0,0,0,0-7.84l-31.66-22.7a4.89,4.89,0,0,0-2.83-.91Z"/><path class="cls-22" d="M0,725H251.62v1.3a18,18,0,0,1-18,18H18a18,18,0,0,1-18-18Z"/><path class="cls-2" d="M139.61,733.79H101a8.54,8.54,0,0,1-8.54-8.54.25.25,0,0,1,.25-.25h55.39a.27.27,0,0,1,.26.27,8.79,8.79,0,0,1-8.79,8.52Z"/></g></g></svg>