<?xml version="1.0" encoding="utf-8"?>
<!-- Generator: Adobe Illustrator 24.3.0, SVG Export Plug-In . SVG Version: 6.00 Build 0)  -->
<svg version="1.1" id="katman_1" xmlns="http://www.w3.org/2000/svg" xmlns:xlink="http://www.w3.org/1999/xlink" x="0px" y="0px"
	 viewBox="0 0 74.5 13.7" style="enable-background:new 0 0 74.5 13.7;" xml:space="preserve">
<style type="text/css">
	.st0{enable-background:new    ;}
	.st1{fill:#4285F4;}
	.st2{fill:#EA4335;}
	.st3{fill:#FBBC05;}
	.st4{fill:#34A853;}
</style>
<g id="katman_2_1_">
	<g id="katman_1-2">
		<g class="st0">
			<path class="st1" d="M4.9,5.6h4.2c0,0.1,0,0.2,0.1,0.3c0,0.1,0,0.3,0,0.4c0,0.6-0.1,1.1-0.3,1.6C8.8,8.4,8.6,8.8,8.2,9.2
				c-0.4,0.4-0.8,0.7-1.4,0.9c-0.5,0.2-1.1,0.3-1.8,0.3c-0.6,0-1.2-0.1-1.8-0.3c-0.6-0.2-1-0.5-1.4-0.9C1.4,8.8,1,8.3,0.8,7.8
				C0.6,7.2,0.4,6.7,0.4,6c0-0.6,0.1-1.2,0.4-1.8c0.2-0.5,0.6-1,1-1.4c0.4-0.4,0.9-0.7,1.4-0.9C3.8,1.6,4.4,1.5,5,1.5
				c0.7,0,1.3,0.1,1.9,0.4c0.5,0.2,1,0.6,1.4,1L7.1,4C6.9,3.7,6.5,3.4,6.2,3.3C5.9,3.1,5.4,3.1,5,3.1c-0.4,0-0.8,0.1-1.1,0.2
				C3.5,3.4,3.2,3.6,2.9,3.9C2.7,4.1,2.5,4.4,2.3,4.8C2.1,5.2,2.1,5.6,2.1,6s0.1,0.9,0.2,1.2c0.2,0.4,0.4,0.7,0.6,0.9
				c0.3,0.3,0.6,0.5,0.9,0.6C4.2,8.9,4.6,9,5,9c0.5,0,0.8-0.1,1.2-0.2S6.7,8.5,7,8.2c0.2-0.1,0.3-0.3,0.4-0.5C7.5,7.5,7.6,7.2,7.6,7
				H4.9V5.6z"/>
		</g>
		<g class="st0">
			<path class="st2" d="M13.1,4.2c0.5,0,0.9,0.1,1.3,0.2s0.7,0.4,1,0.6c0.3,0.3,0.5,0.6,0.6,1c0.2,0.4,0.2,0.8,0.2,1.3
				S16.2,8.2,16,8.6c-0.2,0.4-0.4,0.7-0.6,1c-0.3,0.3-0.6,0.5-1,0.6s-0.8,0.2-1.3,0.2s-0.9-0.1-1.3-0.2c-0.4-0.2-0.7-0.4-1-0.6
				c-0.3-0.3-0.5-0.6-0.6-1C10.1,8.2,10,7.8,10,7.4s0.1-0.9,0.2-1.3c0.2-0.4,0.4-0.7,0.6-1c0.3-0.3,0.6-0.5,1-0.6
				C12.2,4.3,12.7,4.2,13.1,4.2z M13.1,9c0.2,0,0.4,0,0.6-0.1s0.4-0.2,0.5-0.3c0.1-0.1,0.3-0.3,0.3-0.5c0.1-0.2,0.1-0.4,0.1-0.7
				c0-0.3,0-0.5-0.1-0.7c-0.1-0.2-0.2-0.4-0.3-0.5c-0.1-0.1-0.3-0.3-0.5-0.3s-0.4-0.1-0.6-0.1c-0.2,0-0.4,0-0.6,0.1
				C12.3,5.9,12.2,6,12,6.1c-0.1,0.1-0.3,0.3-0.3,0.5c-0.1,0.2-0.1,0.4-0.1,0.7c0,0.3,0,0.5,0.1,0.7c0.1,0.2,0.2,0.4,0.3,0.5
				c0.1,0.1,0.3,0.3,0.5,0.3C12.7,9,12.9,9,13.1,9z"/>
		</g>
		<g class="st0">
			<path class="st3" d="M20,4.2c0.5,0,0.9,0.1,1.3,0.2s0.7,0.4,1,0.6c0.3,0.3,0.5,0.6,0.6,1c0.2,0.4,0.2,0.8,0.2,1.3
				s-0.1,0.9-0.2,1.3c-0.2,0.4-0.4,0.7-0.6,1c-0.3,0.3-0.6,0.5-1,0.6s-0.8,0.2-1.3,0.2s-0.9-0.1-1.3-0.2c-0.4-0.2-0.7-0.4-1-0.6
				c-0.3-0.3-0.5-0.6-0.6-1c-0.2-0.4-0.2-0.8-0.2-1.3s0.1-0.9,0.2-1.3c0.2-0.4,0.4-0.7,0.6-1c0.3-0.3,0.6-0.5,1-0.6
				C19.2,4.3,19.6,4.2,20,4.2z M20,9c0.2,0,0.4,0,0.6-0.1s0.4-0.2,0.5-0.3c0.1-0.1,0.3-0.3,0.3-0.5c0.1-0.2,0.1-0.4,0.1-0.7
				c0-0.3,0-0.5-0.1-0.7c-0.1-0.2-0.2-0.4-0.3-0.5C21,6,20.8,5.9,20.6,5.8S20.2,5.7,20,5.7c-0.2,0-0.4,0-0.6,0.1
				c-0.2,0.1-0.3,0.2-0.5,0.3c-0.1,0.1-0.3,0.3-0.3,0.5c-0.1,0.2-0.1,0.4-0.1,0.7c0,0.3,0,0.5,0.1,0.7c0.1,0.2,0.2,0.4,0.3,0.5
				c0.1,0.1,0.3,0.3,0.5,0.3C19.6,9,19.8,9,20,9z"/>
		</g>
		<g class="st0">
			<path class="st1" d="M26.9,13.1c-0.4,0-0.8-0.1-1.1-0.2c-0.3-0.1-0.6-0.2-0.8-0.4c-0.2-0.2-0.4-0.4-0.6-0.6
				c-0.2-0.2-0.3-0.4-0.3-0.6l1.5-0.6c0.1,0.3,0.3,0.6,0.6,0.7c0.3,0.2,0.5,0.3,0.9,0.3c0.5,0,0.9-0.2,1.2-0.5
				c0.3-0.3,0.4-0.8,0.4-1.3V9.5h-0.1c-0.2,0.3-0.4,0.5-0.7,0.6c-0.3,0.1-0.7,0.2-1.1,0.2c-0.4,0-0.7-0.1-1-0.2s-0.6-0.3-0.9-0.6
				c-0.3-0.3-0.5-0.6-0.6-1c-0.2-0.4-0.2-0.8-0.2-1.2c0-0.5,0.1-0.9,0.2-1.3c0.2-0.4,0.4-0.7,0.6-1c0.3-0.3,0.5-0.5,0.9-0.6
				s0.7-0.2,1-0.2c0.4,0,0.8,0.1,1.1,0.2c0.3,0.1,0.5,0.3,0.7,0.6h0.1V4.4H30v5.5c0,0.5-0.1,0.9-0.2,1.3c-0.2,0.4-0.4,0.7-0.6,1
				c-0.3,0.3-0.6,0.5-1,0.6C27.8,13,27.3,13.1,26.9,13.1z M26.9,8.9c0.2,0,0.4,0,0.6-0.1c0.2-0.1,0.4-0.2,0.5-0.3
				c0.1-0.1,0.3-0.3,0.3-0.5s0.1-0.4,0.1-0.7c0-0.3,0-0.5-0.1-0.7c-0.1-0.2-0.2-0.4-0.3-0.5c-0.1-0.1-0.3-0.2-0.5-0.3
				c-0.2-0.1-0.4-0.1-0.6-0.1c-0.2,0-0.4,0-0.6,0.1S26,5.9,25.9,6.1c-0.1,0.1-0.3,0.3-0.3,0.5c-0.1,0.2-0.1,0.4-0.1,0.7
				c0,0.3,0,0.5,0.1,0.7c0.1,0.2,0.2,0.4,0.3,0.5s0.3,0.2,0.5,0.3C26.5,8.8,26.7,8.9,26.9,8.9z"/>
		</g>
		<g class="st0">
			<path class="st4" d="M31.3,10.3V1.7h1.6v8.6H31.3z"/>
		</g>
		<g class="st0">
			<path class="st2" d="M39.7,8.9c-0.3,0.5-0.6,0.9-1.1,1.2c-0.5,0.3-1,0.4-1.7,0.4c-0.4,0-0.9-0.1-1.2-0.2s-0.7-0.4-1-0.7
				c-0.3-0.3-0.5-0.6-0.7-1c-0.2-0.4-0.2-0.8-0.2-1.3c0-0.4,0.1-0.8,0.2-1.2c0.2-0.4,0.4-0.7,0.6-1c0.3-0.3,0.6-0.5,1-0.7
				s0.8-0.3,1.2-0.3c0.5,0,0.9,0.1,1.3,0.2c0.4,0.2,0.7,0.4,0.9,0.6c0.2,0.3,0.4,0.6,0.6,1c0.1,0.4,0.2,0.8,0.2,1.2
				c0,0.1,0,0.1,0,0.1c0,0,0,0.1,0,0.1c0,0,0,0.1,0,0.1h-4.4c0,0.2,0.1,0.4,0.2,0.6s0.2,0.3,0.4,0.4C36.1,8.9,36.3,9,36.4,9
				c0.2,0.1,0.4,0.1,0.5,0.1c0.4,0,0.7-0.1,0.9-0.2c0.2-0.2,0.4-0.4,0.6-0.6L39.7,8.9z M38.3,6.6c0-0.1,0-0.2-0.1-0.3
				S38.1,6,37.9,5.9c-0.1-0.1-0.3-0.2-0.4-0.3c-0.2-0.1-0.4-0.1-0.6-0.1c-0.3,0-0.6,0.1-0.9,0.3c-0.3,0.2-0.4,0.5-0.5,0.8H38.3z"/>
		</g>
		<g class="st0">
			<path d="M51,8.9c-0.4,0.5-0.9,0.9-1.5,1.2s-1.2,0.4-1.9,0.4c-0.6,0-1.2-0.1-1.8-0.3c-0.5-0.2-1-0.5-1.4-0.9
				c-0.4-0.4-0.7-0.9-0.9-1.4C43.1,7.2,43,6.6,43,6s0.1-1.2,0.3-1.8c0.2-0.5,0.5-1,0.9-1.4c0.4-0.4,0.9-0.7,1.4-0.9
				c0.5-0.2,1.1-0.3,1.8-0.3c0.7,0,1.3,0.1,1.8,0.4c0.5,0.2,1,0.6,1.4,1L49.6,4c-0.3-0.3-0.5-0.5-0.9-0.7c-0.3-0.2-0.7-0.3-1.2-0.3
				c-0.4,0-0.8,0.1-1.1,0.2c-0.4,0.1-0.7,0.3-0.9,0.6c-0.3,0.3-0.5,0.6-0.6,0.9c-0.2,0.4-0.2,0.8-0.2,1.2s0.1,0.9,0.2,1.2
				c0.2,0.4,0.4,0.7,0.6,0.9c0.3,0.3,0.6,0.5,0.9,0.6C46.8,8.9,47.1,9,47.5,9c0.5,0,0.9-0.1,1.3-0.3s0.7-0.5,1-0.8L51,8.9z"/>
		</g>
		<g class="st0">
			<path d="M51.9,10.3V1.7h1.6v8.6H51.9z"/>
		</g>
		<g class="st0">
			<path d="M57.6,4.2c0.5,0,0.9,0.1,1.3,0.2s0.7,0.4,1,0.6c0.3,0.3,0.5,0.6,0.6,1s0.2,0.8,0.2,1.3s-0.1,0.9-0.2,1.3
				c-0.2,0.4-0.4,0.7-0.6,1c-0.3,0.3-0.6,0.5-1,0.6s-0.8,0.2-1.3,0.2s-0.9-0.1-1.3-0.2c-0.4-0.2-0.7-0.4-1-0.6
				c-0.3-0.3-0.5-0.6-0.6-1c-0.2-0.4-0.2-0.8-0.2-1.3s0.1-0.9,0.2-1.3c0.2-0.4,0.4-0.7,0.6-1c0.3-0.3,0.6-0.5,1-0.6
				C56.7,4.3,57.1,4.2,57.6,4.2z M57.6,9c0.2,0,0.4,0,0.6-0.1c0.2-0.1,0.4-0.2,0.5-0.3c0.1-0.1,0.3-0.3,0.3-0.5
				c0.1-0.2,0.1-0.4,0.1-0.7c0-0.3,0-0.5-0.1-0.7c-0.1-0.2-0.2-0.4-0.3-0.5c-0.1-0.1-0.3-0.3-0.5-0.3c-0.2-0.1-0.4-0.1-0.6-0.1
				c-0.2,0-0.4,0-0.6,0.1c-0.2,0.1-0.3,0.2-0.5,0.3c-0.1,0.1-0.3,0.3-0.3,0.5C56.1,6.9,56,7.1,56,7.4c0,0.3,0,0.5,0.1,0.7
				c0.1,0.2,0.2,0.4,0.3,0.5c0.1,0.1,0.3,0.3,0.5,0.3C57.2,9,57.4,9,57.6,9z"/>
		</g>
		<g class="st0">
			<path d="M63.1,5.2L63.1,5.2c0.3-0.3,0.5-0.5,0.8-0.7c0.3-0.2,0.7-0.3,1.1-0.3c0.4,0,0.7,0.1,1,0.2c0.3,0.1,0.5,0.3,0.7,0.5
				s0.3,0.5,0.4,0.8s0.1,0.7,0.1,1v3.6h-1.6V6.9c0-0.4-0.1-0.7-0.3-0.9c-0.2-0.2-0.5-0.3-0.8-0.3c-0.2,0-0.4,0-0.6,0.1
				c-0.2,0.1-0.3,0.2-0.4,0.4c-0.1,0.2-0.2,0.3-0.3,0.6c-0.1,0.2-0.1,0.4-0.1,0.7v2.9h-1.6V4.4h1.5V5.2z"/>
			<path d="M74,8.9c-0.3,0.5-0.6,0.9-1.1,1.2s-1,0.4-1.7,0.4c-0.4,0-0.9-0.1-1.2-0.2s-0.7-0.4-1-0.7c-0.3-0.3-0.5-0.6-0.7-1
				c-0.2-0.4-0.2-0.8-0.2-1.3c0-0.4,0.1-0.8,0.2-1.2c0.2-0.4,0.4-0.7,0.6-1c0.3-0.3,0.6-0.5,1-0.7s0.8-0.3,1.2-0.3
				c0.5,0,0.9,0.1,1.3,0.2c0.4,0.2,0.7,0.4,0.9,0.6c0.2,0.3,0.4,0.6,0.6,1s0.2,0.8,0.2,1.2c0,0.1,0,0.1,0,0.1c0,0,0,0.1,0,0.1
				c0,0,0,0.1,0,0.1h-4.4c0,0.2,0.1,0.4,0.2,0.6c0.1,0.2,0.2,0.3,0.4,0.4C70.4,8.9,70.6,9,70.7,9c0.2,0.1,0.4,0.1,0.5,0.1
				c0.4,0,0.7-0.1,0.9-0.2c0.2-0.2,0.4-0.4,0.6-0.6L74,8.9z M72.6,6.6c0-0.1,0-0.2-0.1-0.3c-0.1-0.1-0.1-0.2-0.3-0.4
				c-0.1-0.1-0.3-0.2-0.4-0.3c-0.2-0.1-0.4-0.1-0.6-0.1c-0.3,0-0.6,0.1-0.9,0.3s-0.4,0.5-0.5,0.8H72.6z"/>
		</g>
	</g>
</g>
</svg>
