<svg width="76" height="15" viewBox="0 0 76 15" fill="none" xmlns="http://www.w3.org/2000/svg">
<path d="M4.944 7.284H9.156C9.18 7.38 9.2 7.496 9.216 7.632C9.232 7.768 9.24 7.904 9.24 8.04C9.24 8.592 9.156 9.112 8.988 9.6C8.82 10.088 8.556 10.524 8.196 10.908C7.812 11.316 7.352 11.632 6.816 11.856C6.28 12.08 5.668 12.192 4.98 12.192C4.356 12.192 3.768 12.08 3.216 11.856C2.664 11.632 2.184 11.32 1.776 10.92C1.368 10.52 1.044 10.048 0.804 9.504C0.564 8.952 0.444 8.352 0.444 7.704C0.444 7.056 0.564 6.46 0.804 5.916C1.044 5.364 1.368 4.888 1.776 4.488C2.184 4.088 2.664 3.776 3.216 3.552C3.768 3.328 4.356 3.216 4.98 3.216C5.676 3.216 6.296 3.336 6.84 3.576C7.392 3.816 7.864 4.148 8.256 4.572L7.14 5.664C6.86 5.368 6.548 5.144 6.204 4.992C5.86 4.832 5.448 4.752 4.968 4.752C4.576 4.752 4.204 4.824 3.852 4.968C3.5 5.104 3.192 5.3 2.928 5.556C2.664 5.812 2.452 6.124 2.292 6.492C2.14 6.852 2.064 7.256 2.064 7.704C2.064 8.152 2.14 8.56 2.292 8.928C2.452 9.288 2.664 9.596 2.928 9.852C3.2 10.108 3.512 10.308 3.864 10.452C4.216 10.588 4.592 10.656 4.992 10.656C5.448 10.656 5.832 10.592 6.144 10.464C6.464 10.328 6.736 10.156 6.96 9.948C7.12 9.804 7.256 9.624 7.368 9.408C7.488 9.184 7.58 8.936 7.644 8.664H4.944V7.284ZM26.927 14.784C26.511 14.784 26.139 14.728 25.811 14.616C25.491 14.512 25.211 14.372 24.971 14.196C24.731 14.028 24.531 13.84 24.371 13.632C24.211 13.424 24.095 13.216 24.023 13.008L25.523 12.408C25.635 12.72 25.819 12.96 26.075 13.128C26.331 13.304 26.615 13.392 26.927 13.392C27.423 13.392 27.815 13.236 28.103 12.924C28.391 12.62 28.535 12.192 28.535 11.64V11.232H28.439C28.255 11.488 28.011 11.692 27.707 11.844C27.411 11.988 27.059 12.06 26.651 12.06C26.299 12.06 25.955 11.988 25.619 11.844C25.291 11.7 24.999 11.496 24.743 11.232C24.487 10.96 24.279 10.636 24.119 10.26C23.959 9.884 23.879 9.464 23.879 9C23.879 8.536 23.959 8.116 24.119 7.74C24.279 7.356 24.487 7.032 24.743 6.768C24.999 6.496 25.291 6.288 25.619 6.144C25.955 6 26.299 5.928 26.651 5.928C27.059 5.928 27.411 6.004 27.707 6.156C28.011 6.3 28.255 6.5 28.439 6.756H28.535V6.12H30.035V11.58C30.035 12.076 29.959 12.52 29.807 12.912C29.655 13.312 29.443 13.648 29.171 13.92C28.899 14.2 28.571 14.412 28.187 14.556C27.811 14.708 27.391 14.784 26.927 14.784ZM26.987 10.644C27.179 10.644 27.367 10.608 27.551 10.536C27.743 10.464 27.911 10.36 28.055 10.224C28.199 10.08 28.315 9.908 28.403 9.708C28.491 9.5 28.535 9.264 28.535 9C28.535 8.736 28.491 8.5 28.403 8.292C28.315 8.084 28.199 7.912 28.055 7.776C27.911 7.632 27.743 7.524 27.551 7.452C27.367 7.38 27.179 7.344 26.987 7.344C26.795 7.344 26.607 7.38 26.423 7.452C26.239 7.524 26.075 7.632 25.931 7.776C25.787 7.92 25.671 8.096 25.583 8.304C25.495 8.504 25.451 8.736 25.451 9C25.451 9.264 25.495 9.5 25.583 9.708C25.671 9.908 25.787 10.08 25.931 10.224C26.075 10.36 26.239 10.464 26.423 10.536C26.607 10.608 26.795 10.644 26.987 10.644Z" fill="#4285F4"/>
<path d="M13.1708 5.928C13.6268 5.928 14.0428 6.008 14.4188 6.168C14.8028 6.32 15.1308 6.536 15.4028 6.816C15.6828 7.088 15.8988 7.416 16.0508 7.8C16.2108 8.184 16.2908 8.604 16.2908 9.06C16.2908 9.516 16.2108 9.936 16.0508 10.32C15.8988 10.704 15.6828 11.036 15.4028 11.316C15.1308 11.588 14.8028 11.804 14.4188 11.964C14.0428 12.116 13.6268 12.192 13.1708 12.192C12.7148 12.192 12.2948 12.116 11.9108 11.964C11.5348 11.804 11.2068 11.588 10.9268 11.316C10.6548 11.036 10.4388 10.704 10.2788 10.32C10.1268 9.936 10.0508 9.516 10.0508 9.06C10.0508 8.604 10.1268 8.184 10.2788 7.8C10.4388 7.416 10.6548 7.088 10.9268 6.816C11.2068 6.536 11.5348 6.32 11.9108 6.168C12.2948 6.008 12.7148 5.928 13.1708 5.928ZM13.1708 10.74C13.3708 10.74 13.5628 10.704 13.7468 10.632C13.9388 10.552 14.1068 10.44 14.2508 10.296C14.3948 10.152 14.5068 9.976 14.5868 9.768C14.6748 9.56 14.7188 9.324 14.7188 9.06C14.7188 8.796 14.6748 8.56 14.5868 8.352C14.5068 8.144 14.3948 7.968 14.2508 7.824C14.1068 7.68 13.9388 7.572 13.7468 7.5C13.5628 7.42 13.3708 7.38 13.1708 7.38C12.9628 7.38 12.7668 7.42 12.5828 7.5C12.3988 7.572 12.2348 7.68 12.0908 7.824C11.9468 7.968 11.8308 8.144 11.7428 8.352C11.6628 8.56 11.6228 8.796 11.6228 9.06C11.6228 9.324 11.6628 9.56 11.7428 9.768C11.8308 9.976 11.9468 10.152 12.0908 10.296C12.2348 10.44 12.3988 10.552 12.5828 10.632C12.7668 10.704 12.9628 10.74 13.1708 10.74ZM39.8611 10.584C39.5891 11.064 39.2211 11.452 38.7571 11.748C38.3011 12.044 37.7411 12.192 37.0771 12.192C36.6291 12.192 36.2131 12.116 35.8291 11.964C35.4531 11.804 35.1251 11.584 34.8451 11.304C34.5651 11.024 34.3451 10.696 34.1851 10.32C34.0331 9.936 33.9571 9.516 33.9571 9.06C33.9571 8.636 34.0331 8.236 34.1851 7.86C34.3371 7.476 34.5491 7.144 34.8211 6.864C35.0931 6.576 35.4131 6.348 35.7811 6.18C36.1571 6.012 36.5691 5.928 37.0171 5.928C37.4891 5.928 37.9091 6.008 38.2771 6.168C38.6451 6.32 38.9531 6.536 39.2011 6.816C39.4491 7.088 39.6371 7.412 39.7651 7.788C39.8931 8.164 39.9571 8.572 39.9571 9.012C39.9571 9.068 39.9571 9.116 39.9571 9.156C39.9491 9.204 39.9451 9.248 39.9451 9.288C39.9371 9.328 39.9331 9.372 39.9331 9.42H35.5051C35.5371 9.66 35.6011 9.868 35.6971 10.044C35.8011 10.212 35.9251 10.356 36.0691 10.476C36.2211 10.588 36.3851 10.672 36.5611 10.728C36.7371 10.776 36.9171 10.8 37.1011 10.8C37.4611 10.8 37.7571 10.72 37.9891 10.56C38.2291 10.392 38.4171 10.184 38.5531 9.936L39.8611 10.584ZM38.4331 8.304C38.4251 8.2 38.3891 8.084 38.3251 7.956C38.2691 7.828 38.1811 7.708 38.0611 7.596C37.9491 7.484 37.8051 7.392 37.6291 7.32C37.4611 7.248 37.2571 7.212 37.0171 7.212C36.6811 7.212 36.3851 7.308 36.1291 7.5C35.8731 7.692 35.6931 7.96 35.5891 8.304H38.4331Z" fill="#EA4335"/>
<path d="M20.0849 5.928C20.5409 5.928 20.9569 6.008 21.3329 6.168C21.7169 6.32 22.0449 6.536 22.3169 6.816C22.5969 7.088 22.8129 7.416 22.9649 7.8C23.1249 8.184 23.2049 8.604 23.2049 9.06C23.2049 9.516 23.1249 9.936 22.9649 10.32C22.8129 10.704 22.5969 11.036 22.3169 11.316C22.0449 11.588 21.7169 11.804 21.3329 11.964C20.9569 12.116 20.5409 12.192 20.0849 12.192C19.6289 12.192 19.2089 12.116 18.8249 11.964C18.4489 11.804 18.1209 11.588 17.8409 11.316C17.5689 11.036 17.3529 10.704 17.1929 10.32C17.0409 9.936 16.9649 9.516 16.9649 9.06C16.9649 8.604 17.0409 8.184 17.1929 7.8C17.3529 7.416 17.5689 7.088 17.8409 6.816C18.1209 6.536 18.4489 6.32 18.8249 6.168C19.2089 6.008 19.6289 5.928 20.0849 5.928ZM20.0849 10.74C20.2849 10.74 20.4769 10.704 20.6609 10.632C20.8529 10.552 21.0209 10.44 21.1649 10.296C21.3089 10.152 21.4209 9.976 21.5009 9.768C21.5889 9.56 21.6329 9.324 21.6329 9.06C21.6329 8.796 21.5889 8.56 21.5009 8.352C21.4209 8.144 21.3089 7.968 21.1649 7.824C21.0209 7.68 20.8529 7.572 20.6609 7.5C20.4769 7.42 20.2849 7.38 20.0849 7.38C19.8769 7.38 19.6809 7.42 19.4969 7.5C19.3129 7.572 19.1489 7.68 19.0049 7.824C18.8609 7.968 18.7449 8.144 18.6569 8.352C18.5769 8.56 18.5369 8.796 18.5369 9.06C18.5369 9.324 18.5769 9.56 18.6569 9.768C18.7449 9.976 18.8609 10.152 19.0049 10.296C19.1489 10.44 19.3129 10.552 19.4969 10.632C19.6809 10.704 19.8769 10.74 20.0849 10.74Z" fill="#FBBC05"/>
<path d="M31.3751 12V3.408H32.9471V12H31.3751Z" fill="#34A853"/>
<path d="M52.376 10.62C51.952 11.132 51.452 11.524 50.876 11.796C50.3 12.06 49.656 12.192 48.944 12.192C48.304 12.192 47.708 12.076 47.156 11.844C46.612 11.612 46.14 11.296 45.74 10.896C45.34 10.496 45.024 10.024 44.792 9.48C44.56 8.928 44.444 8.336 44.444 7.704C44.444 7.072 44.56 6.484 44.792 5.94C45.024 5.388 45.34 4.912 45.74 4.512C46.14 4.112 46.612 3.796 47.156 3.564C47.708 3.332 48.304 3.216 48.944 3.216C49.632 3.216 50.236 3.336 50.756 3.576C51.284 3.816 51.752 4.164 52.16 4.62L51.02 5.724C50.764 5.428 50.468 5.192 50.132 5.016C49.804 4.84 49.412 4.752 48.956 4.752C48.556 4.752 48.18 4.824 47.828 4.968C47.476 5.104 47.168 5.3 46.904 5.556C46.648 5.812 46.444 6.124 46.292 6.492C46.14 6.852 46.064 7.256 46.064 7.704C46.064 8.152 46.14 8.56 46.292 8.928C46.444 9.288 46.648 9.596 46.904 9.852C47.168 10.108 47.476 10.308 47.828 10.452C48.18 10.588 48.556 10.656 48.956 10.656C49.436 10.656 49.86 10.56 50.228 10.368C50.604 10.168 50.936 9.888 51.224 9.528L52.376 10.62ZM53.3673 12V3.408H54.9393V12H53.3673ZM59.0107 5.928C59.4667 5.928 59.8827 6.008 60.2587 6.168C60.6427 6.32 60.9707 6.536 61.2427 6.816C61.5227 7.088 61.7387 7.416 61.8907 7.8C62.0507 8.184 62.1307 8.604 62.1307 9.06C62.1307 9.516 62.0507 9.936 61.8907 10.32C61.7387 10.704 61.5227 11.036 61.2427 11.316C60.9707 11.588 60.6427 11.804 60.2587 11.964C59.8827 12.116 59.4667 12.192 59.0107 12.192C58.5547 12.192 58.1347 12.116 57.7507 11.964C57.3747 11.804 57.0467 11.588 56.7667 11.316C56.4947 11.036 56.2787 10.704 56.1187 10.32C55.9667 9.936 55.8907 9.516 55.8907 9.06C55.8907 8.604 55.9667 8.184 56.1187 7.8C56.2787 7.416 56.4947 7.088 56.7667 6.816C57.0467 6.536 57.3747 6.32 57.7507 6.168C58.1347 6.008 58.5547 5.928 59.0107 5.928ZM59.0107 10.74C59.2107 10.74 59.4027 10.704 59.5867 10.632C59.7787 10.552 59.9467 10.44 60.0907 10.296C60.2347 10.152 60.3467 9.976 60.4267 9.768C60.5147 9.56 60.5587 9.324 60.5587 9.06C60.5587 8.796 60.5147 8.56 60.4267 8.352C60.3467 8.144 60.2347 7.968 60.0907 7.824C59.9467 7.68 59.7787 7.572 59.5867 7.5C59.4027 7.42 59.2107 7.38 59.0107 7.38C58.8027 7.38 58.6067 7.42 58.4227 7.5C58.2387 7.572 58.0747 7.68 57.9307 7.824C57.7867 7.968 57.6707 8.144 57.5827 8.352C57.5027 8.56 57.4627 8.796 57.4627 9.06C57.4627 9.324 57.5027 9.56 57.5827 9.768C57.6707 9.976 57.7867 10.152 57.9307 10.296C58.0747 10.44 58.2387 10.552 58.4227 10.632C58.6067 10.704 58.8027 10.74 59.0107 10.74ZM64.4996 6.888H64.5956C64.7796 6.592 65.0276 6.36 65.3396 6.192C65.6516 6.016 66.0076 5.928 66.4076 5.928C66.7756 5.928 67.0996 5.988 67.3796 6.108C67.6596 6.228 67.8876 6.4 68.0636 6.624C68.2476 6.84 68.3836 7.104 68.4716 7.416C68.5676 7.72 68.6156 8.06 68.6156 8.436V12H67.0436V8.628C67.0436 8.204 66.9476 7.892 66.7556 7.692C66.5716 7.484 66.2996 7.38 65.9396 7.38C65.7236 7.38 65.5316 7.428 65.3636 7.524C65.2036 7.612 65.0636 7.736 64.9436 7.896C64.8316 8.048 64.7436 8.232 64.6796 8.448C64.6236 8.656 64.5956 8.88 64.5956 9.12V12H63.0236V6.12H64.4996V6.888ZM75.4822 10.584C75.2102 11.064 74.8422 11.452 74.3782 11.748C73.9222 12.044 73.3622 12.192 72.6982 12.192C72.2502 12.192 71.8342 12.116 71.4502 11.964C71.0742 11.804 70.7462 11.584 70.4662 11.304C70.1862 11.024 69.9662 10.696 69.8062 10.32C69.6542 9.936 69.5782 9.516 69.5782 9.06C69.5782 8.636 69.6542 8.236 69.8062 7.86C69.9582 7.476 70.1702 7.144 70.4422 6.864C70.7142 6.576 71.0342 6.348 71.4022 6.18C71.7782 6.012 72.1902 5.928 72.6382 5.928C73.1102 5.928 73.5302 6.008 73.8982 6.168C74.2662 6.32 74.5742 6.536 74.8222 6.816C75.0702 7.088 75.2582 7.412 75.3862 7.788C75.5142 8.164 75.5782 8.572 75.5782 9.012C75.5782 9.068 75.5782 9.116 75.5782 9.156C75.5702 9.204 75.5662 9.248 75.5662 9.288C75.5582 9.328 75.5542 9.372 75.5542 9.42H71.1262C71.1582 9.66 71.2222 9.868 71.3182 10.044C71.4222 10.212 71.5462 10.356 71.6902 10.476C71.8422 10.588 72.0062 10.672 72.1822 10.728C72.3582 10.776 72.5382 10.8 72.7222 10.8C73.0822 10.8 73.3782 10.72 73.6102 10.56C73.8502 10.392 74.0382 10.184 74.1742 9.936L75.4822 10.584ZM74.0542 8.304C74.0462 8.2 74.0102 8.084 73.9462 7.956C73.8902 7.828 73.8022 7.708 73.6822 7.596C73.5702 7.484 73.4262 7.392 73.2502 7.32C73.0822 7.248 72.8782 7.212 72.6382 7.212C72.3022 7.212 72.0062 7.308 71.7502 7.5C71.4942 7.692 71.3142 7.96 71.2102 8.304H74.0542Z" fill="black"/>
</svg>
