<?xml version="1.0" encoding="UTF-8"?>
<!--suppress ALL -->
<svg width="48px" height="49px" viewBox="0 0 48 49" version="1.1" xmlns="http://www.w3.org/2000/svg" xmlns:xlink="http://www.w3.org/1999/xlink">
    <title>Share-forms-via-email-link-or-website</title>
    <g id="Page-1" stroke="none" stroke-width="1" fill="none" fill-rule="evenodd">
        <g id="Share-forms-via-email-link-or-website" transform="translate(0.000000, 0.960000)">
            <circle id="Oval-Copy-14" fill="#1A73E8" cx="24" cy="24" r="24"></circle>
            <g id="share_gm_grey_24dp" transform="translate(10.000000, 10.000000)">
                <g id="Group">
                    <rect id="Rectangle" x="0" y="0" width="28" height="28"></rect>
                    <rect id="Rectangle" x="0" y="0" width="28" height="28"></rect>
                </g>
                <path d="M19.4993082,18.4 C18.6303082,18.4 17.8493082,18.741 17.2663082,19.291 L9.50030817,14.77 C9.55530817,14.517 9.59930817,14.264 9.59930817,14 C9.59930817,13.736 9.55530817,13.483 9.50030817,13.23 L17.2553082,8.709 C17.8383082,9.259 18.6303082,9.6 19.4993082,9.6 C21.3253082,9.6 22.7993082,8.126 22.7993082,6.3 C22.7993082,4.474 21.3253082,3 19.4993082,3 C17.6733082,3 16.1993082,4.474 16.1993082,6.3 C16.1993082,6.564 16.2433082,6.828 16.2983082,7.07 L8.54330817,11.591 C7.94930817,11.041 7.16830817,10.7 6.29930817,10.7 C4.47330817,10.7 2.99930817,12.174 2.99930817,14 C2.99930817,15.826 4.47330817,17.3 6.29930817,17.3 C7.16830817,17.3 7.94930817,16.959 8.54330817,16.409 L16.2983082,20.941 C16.2433082,21.183 16.1993082,21.436 16.1993082,21.7 C16.1993082,23.526 17.6733082,25 19.4993082,25 C21.3253082,25 22.7993082,23.526 22.7993082,21.7 C22.7993082,19.874 21.3253082,18.4 19.4993082,18.4 Z" id="Path" fill="#FFFFFF" fill-rule="nonzero"></path>
            </g>
        </g>
    </g>
</svg>