<?xml version="1.0" encoding="UTF-8"?>
<!--suppress ALL -->
<svg width="48px" height="49px" viewBox="0 0 48 49" version="1.1" xmlns="http://www.w3.org/2000/svg">
    <title>Build-forms-and-analyze-results-together</title>
    <g id="Page-1" stroke="none" stroke-width="1" fill="none" fill-rule="evenodd">
        <g id="Build-forms-and-analyze-results-together" transform="translate(0.000000, 0.960000)">
            <circle id="Oval" fill="#1A73E8" cx="24" cy="24" r="24"></circle>
            <g id="group_add_gm_grey_24dp" transform="translate(10.000000, 10.000000)">
                <g id="Group">
                    <rect id="Rectangle" x="0" y="0" width="28" height="28"></rect>
                    <rect id="Rectangle" x="0" y="0" width="28" height="28"></rect>
                </g>
                <g id="Group" transform="translate(1.500000, 5.666667)" fill="#FFFFFF" fill-rule="nonzero">
                    <polygon id="Path" points="22.9166667 5.20833333 22.9166667 3.125 20.8333333 3.125 20.8333333 5.20833333 18.75 5.20833333 18.75 7.29166667 20.8333333 7.29166667 20.8333333 9.375 22.9166667 9.375 22.9166667 7.29166667 25 7.29166667 25 5.20833333"></polygon>
                    <path d="M8.33333333,8.33333333 C10.6354167,8.33333333 12.5,6.46875 12.5,4.16666667 C12.5,1.86458333 10.6354167,0 8.33333333,0 C6.03125,0 4.16666667,1.86458333 4.16666667,4.16666667 C4.16666667,6.46875 6.03125,8.33333333 8.33333333,8.33333333 Z" id="Path"></path>
                    <path d="M8.33333333,9.375 C5.55208333,9.375 0,10.7708333 0,13.5416667 L0,16.6666667 L16.6666667,16.6666667 L16.6666667,13.5416667 C16.6666667,10.7708333 11.1145833,9.375 8.33333333,9.375 Z" id="Path"></path>
                    <path d="M13.03125,0.0520833333 C13.9895833,1.15625 14.5833333,2.59375 14.5833333,4.16666667 C14.5833333,5.73958333 13.9895833,7.17708333 13.03125,8.28125 C15.0729167,8.02083333 16.6666667,6.29166667 16.6666667,4.16666667 C16.6666667,2.04166667 15.0729167,0.3125 13.03125,0.0520833333 Z" id="Path"></path>
                    <path d="M17.21875,10.2395833 C18.1458333,11.1041667 18.75,12.1875 18.75,13.5416667 L18.75,16.6666667 L20.8333333,16.6666667 L20.8333333,13.5416667 C20.8333333,12.03125 19.1770833,10.9270833 17.21875,10.2395833 Z" id="Path"></path>
                </g>
            </g>
        </g>
    </g>
</svg>