<svg width="127" height="15" viewBox="0 0 127 15" fill="none" xmlns="http://www.w3.org/2000/svg">
<path d="M19.944 7.284H24.156C24.18 7.38 24.2 7.496 24.216 7.632C24.232 7.768 24.24 7.904 24.24 8.04C24.24 8.592 24.156 9.112 23.988 9.6C23.82 10.088 23.556 10.524 23.196 10.908C22.812 11.316 22.352 11.632 21.816 11.856C21.28 12.08 20.668 12.192 19.98 12.192C19.356 12.192 18.768 12.08 18.216 11.856C17.664 11.632 17.184 11.32 16.776 10.92C16.368 10.52 16.044 10.048 15.804 9.504C15.564 8.952 15.444 8.352 15.444 7.704C15.444 7.056 15.564 6.46 15.804 5.916C16.044 5.364 16.368 4.888 16.776 4.488C17.184 4.088 17.664 3.776 18.216 3.552C18.768 3.328 19.356 3.216 19.98 3.216C20.676 3.216 21.296 3.336 21.84 3.576C22.392 3.816 22.864 4.148 23.256 4.572L22.14 5.664C21.86 5.368 21.548 5.144 21.204 4.992C20.86 4.832 20.448 4.752 19.968 4.752C19.576 4.752 19.204 4.824 18.852 4.968C18.5 5.104 18.192 5.3 17.928 5.556C17.664 5.812 17.452 6.124 17.292 6.492C17.14 6.852 17.064 7.256 17.064 7.704C17.064 8.152 17.14 8.56 17.292 8.928C17.452 9.288 17.664 9.596 17.928 9.852C18.2 10.108 18.512 10.308 18.864 10.452C19.216 10.588 19.592 10.656 19.992 10.656C20.448 10.656 20.832 10.592 21.144 10.464C21.464 10.328 21.736 10.156 21.96 9.948C22.12 9.804 22.256 9.624 22.368 9.408C22.488 9.184 22.58 8.936 22.644 8.664H19.944V7.284ZM28.1123 5.928C28.5683 5.928 28.9843 6.008 29.3603 6.168C29.7443 6.32 30.0723 6.536 30.3443 6.816C30.6243 7.088 30.8403 7.416 30.9922 7.8C31.1523 8.184 31.2323 8.604 31.2323 9.06C31.2323 9.516 31.1523 9.936 30.9922 10.32C30.8403 10.704 30.6243 11.036 30.3443 11.316C30.0723 11.588 29.7443 11.804 29.3603 11.964C28.9843 12.116 28.5683 12.192 28.1123 12.192C27.6563 12.192 27.2363 12.116 26.8523 11.964C26.4763 11.804 26.1483 11.588 25.8683 11.316C25.5963 11.036 25.3803 10.704 25.2203 10.32C25.0683 9.936 24.9923 9.516 24.9923 9.06C24.9923 8.604 25.0683 8.184 25.2203 7.8C25.3803 7.416 25.5963 7.088 25.8683 6.816C26.1483 6.536 26.4763 6.32 26.8523 6.168C27.2363 6.008 27.6563 5.928 28.1123 5.928ZM28.1123 10.74C28.3123 10.74 28.5043 10.704 28.6883 10.632C28.8803 10.552 29.0483 10.44 29.1923 10.296C29.3363 10.152 29.4483 9.976 29.5283 9.768C29.6163 9.56 29.6603 9.324 29.6603 9.06C29.6603 8.796 29.6163 8.56 29.5283 8.352C29.4483 8.144 29.3363 7.968 29.1923 7.824C29.0483 7.68 28.8803 7.572 28.6883 7.5C28.5043 7.42 28.3123 7.38 28.1123 7.38C27.9043 7.38 27.7083 7.42 27.5243 7.5C27.3403 7.572 27.1763 7.68 27.0323 7.824C26.8883 7.968 26.7723 8.144 26.6843 8.352C26.6043 8.56 26.5643 8.796 26.5643 9.06C26.5643 9.324 26.6043 9.56 26.6843 9.768C26.7723 9.976 26.8883 10.152 27.0323 10.296C27.1763 10.44 27.3403 10.552 27.5243 10.632C27.7083 10.704 27.9043 10.74 28.1123 10.74ZM35.0263 5.928C35.4823 5.928 35.8983 6.008 36.2743 6.168C36.6583 6.32 36.9863 6.536 37.2583 6.816C37.5383 7.088 37.7543 7.416 37.9063 7.8C38.0663 8.184 38.1463 8.604 38.1463 9.06C38.1463 9.516 38.0663 9.936 37.9063 10.32C37.7543 10.704 37.5383 11.036 37.2583 11.316C36.9863 11.588 36.6583 11.804 36.2743 11.964C35.8983 12.116 35.4823 12.192 35.0263 12.192C34.5703 12.192 34.1503 12.116 33.7663 11.964C33.3903 11.804 33.0623 11.588 32.7823 11.316C32.5103 11.036 32.2943 10.704 32.1343 10.32C31.9823 9.936 31.9063 9.516 31.9063 9.06C31.9063 8.604 31.9823 8.184 32.1343 7.8C32.2943 7.416 32.5103 7.088 32.7823 6.816C33.0623 6.536 33.3903 6.32 33.7663 6.168C34.1503 6.008 34.5703 5.928 35.0263 5.928ZM35.0263 10.74C35.2263 10.74 35.4183 10.704 35.6023 10.632C35.7943 10.552 35.9623 10.44 36.1063 10.296C36.2503 10.152 36.3623 9.976 36.4423 9.768C36.5303 9.56 36.5743 9.324 36.5743 9.06C36.5743 8.796 36.5303 8.56 36.4423 8.352C36.3623 8.144 36.2503 7.968 36.1063 7.824C35.9623 7.68 35.7943 7.572 35.6023 7.5C35.4183 7.42 35.2263 7.38 35.0263 7.38C34.8183 7.38 34.6223 7.42 34.4383 7.5C34.2543 7.572 34.0903 7.68 33.9463 7.824C33.8023 7.968 33.6863 8.144 33.5983 8.352C33.5183 8.56 33.4783 8.796 33.4783 9.06C33.4783 9.324 33.5183 9.56 33.5983 9.768C33.6863 9.976 33.8023 10.152 33.9463 10.296C34.0903 10.44 34.2543 10.552 34.4383 10.632C34.6223 10.704 34.8183 10.74 35.0263 10.74ZM41.8684 14.784C41.4524 14.784 41.0804 14.728 40.7524 14.616C40.4324 14.512 40.1524 14.372 39.9124 14.196C39.6724 14.028 39.4724 13.84 39.3124 13.632C39.1524 13.424 39.0364 13.216 38.9644 13.008L40.4644 12.408C40.5764 12.72 40.7604 12.96 41.0164 13.128C41.2724 13.304 41.5564 13.392 41.8684 13.392C42.3644 13.392 42.7564 13.236 43.0444 12.924C43.3324 12.62 43.4764 12.192 43.4764 11.64V11.232H43.3804C43.1964 11.488 42.9524 11.692 42.6484 11.844C42.3524 11.988 42.0004 12.06 41.5924 12.06C41.2404 12.06 40.8964 11.988 40.5604 11.844C40.2324 11.7 39.9404 11.496 39.6844 11.232C39.4284 10.96 39.2204 10.636 39.0604 10.26C38.9004 9.884 38.8204 9.464 38.8204 9C38.8204 8.536 38.9004 8.116 39.0604 7.74C39.2204 7.356 39.4284 7.032 39.6844 6.768C39.9404 6.496 40.2324 6.288 40.5604 6.144C40.8964 6 41.2404 5.928 41.5924 5.928C42.0004 5.928 42.3524 6.004 42.6484 6.156C42.9524 6.3 43.1964 6.5 43.3804 6.756H43.4764V6.12H44.9764V11.58C44.9764 12.076 44.9004 12.52 44.7484 12.912C44.5964 13.312 44.3844 13.648 44.1124 13.92C43.8404 14.2 43.5124 14.412 43.1284 14.556C42.7524 14.708 42.3324 14.784 41.8684 14.784ZM41.9284 10.644C42.1204 10.644 42.3084 10.608 42.4924 10.536C42.6844 10.464 42.8524 10.36 42.9964 10.224C43.1404 10.08 43.2564 9.908 43.3444 9.708C43.4324 9.5 43.4764 9.264 43.4764 9C43.4764 8.736 43.4324 8.5 43.3444 8.292C43.2564 8.084 43.1404 7.912 42.9964 7.776C42.8524 7.632 42.6844 7.524 42.4924 7.452C42.3084 7.38 42.1204 7.344 41.9284 7.344C41.7364 7.344 41.5484 7.38 41.3644 7.452C41.1804 7.524 41.0164 7.632 40.8724 7.776C40.7284 7.92 40.6124 8.096 40.5244 8.304C40.4364 8.504 40.3924 8.736 40.3924 9C40.3924 9.264 40.4364 9.5 40.5244 9.708C40.6124 9.908 40.7284 10.08 40.8724 10.224C41.0164 10.36 41.1804 10.464 41.3644 10.536C41.5484 10.608 41.7364 10.644 41.9284 10.644ZM46.3165 12V3.408H47.8885V12H46.3165ZM54.7439 10.584C54.4719 11.064 54.1039 11.452 53.6399 11.748C53.1839 12.044 52.6239 12.192 51.9599 12.192C51.5119 12.192 51.0959 12.116 50.7119 11.964C50.3359 11.804 50.0079 11.584 49.7279 11.304C49.4479 11.024 49.2279 10.696 49.0679 10.32C48.9159 9.936 48.8399 9.516 48.8399 9.06C48.8399 8.636 48.9159 8.236 49.0679 7.86C49.2199 7.476 49.4319 7.144 49.7039 6.864C49.9759 6.576 50.2959 6.348 50.6639 6.18C51.0399 6.012 51.4519 5.928 51.8999 5.928C52.3719 5.928 52.7919 6.008 53.1599 6.168C53.5279 6.32 53.8359 6.536 54.0839 6.816C54.3319 7.088 54.5199 7.412 54.6479 7.788C54.7759 8.164 54.8399 8.572 54.8399 9.012C54.8399 9.068 54.8399 9.116 54.8399 9.156C54.8319 9.204 54.8279 9.248 54.8279 9.288C54.8199 9.328 54.8159 9.372 54.8159 9.42H50.3879C50.4199 9.66 50.4839 9.868 50.5799 10.044C50.6839 10.212 50.8079 10.356 50.9519 10.476C51.1039 10.588 51.2679 10.672 51.4439 10.728C51.6199 10.776 51.7999 10.8 51.9839 10.8C52.3439 10.8 52.6399 10.72 52.8719 10.56C53.1119 10.392 53.2999 10.184 53.4359 9.936L54.7439 10.584ZM53.3159 8.304C53.3079 8.2 53.2719 8.084 53.2079 7.956C53.1519 7.828 53.0639 7.708 52.9439 7.596C52.8319 7.484 52.6879 7.392 52.5119 7.32C52.3439 7.248 52.1399 7.212 51.8999 7.212C51.5639 7.212 51.2679 7.308 51.0119 7.5C50.7559 7.692 50.5759 7.96 50.4719 8.304H53.3159Z" fill="#5F6368"/>
<path d="M60.968 8.316V12H59.864V3.408H64.88V4.464H60.968V7.284H64.496V8.316H60.968ZM65.2423 9.06C65.2423 8.156 65.5263 7.408 66.0943 6.816C66.6703 6.224 67.3943 5.928 68.2663 5.928C69.1383 5.928 69.8583 6.224 70.4263 6.816C71.0023 7.408 71.2903 8.156 71.2903 9.06C71.2903 9.972 71.0023 10.72 70.4263 11.304C69.8583 11.896 69.1383 12.192 68.2663 12.192C67.3943 12.192 66.6703 11.896 66.0943 11.304C65.5263 10.712 65.2423 9.964 65.2423 9.06ZM66.3463 9.06C66.3463 9.692 66.5303 10.204 66.8983 10.596C67.2663 10.988 67.7223 11.184 68.2663 11.184C68.8103 11.184 69.2663 10.988 69.6343 10.596C70.0023 10.204 70.1863 9.692 70.1863 9.06C70.1863 8.436 70.0023 7.928 69.6343 7.536C69.2583 7.136 68.8023 6.936 68.2663 6.936C67.7303 6.936 67.2743 7.136 66.8983 7.536C66.5303 7.928 66.3463 8.436 66.3463 9.06ZM73.2799 12H72.1759V6.12H73.2319V7.08H73.2799C73.3919 6.768 73.6199 6.504 73.9639 6.288C74.3159 6.064 74.6599 5.952 74.9959 5.952C75.3159 5.952 75.5879 6 75.8119 6.096L75.4759 7.164C75.3399 7.108 75.1239 7.08 74.8279 7.08C74.4119 7.08 74.0479 7.248 73.7359 7.584C73.4319 7.92 73.2799 8.312 73.2799 8.76V12ZM77.6393 12H76.5353V6.12H77.5913V6.936H77.6393C77.8073 6.648 78.0633 6.408 78.4073 6.216C78.7593 6.024 79.1073 5.928 79.4513 5.928C79.8833 5.928 80.2633 6.028 80.5913 6.228C80.9193 6.428 81.1593 6.704 81.3113 7.056C81.7993 6.304 82.4753 5.928 83.3393 5.928C84.0193 5.928 84.5433 6.136 84.9113 6.552C85.2793 6.968 85.4633 7.56 85.4633 8.328V12H84.3593V8.496C84.3593 7.944 84.2593 7.548 84.0593 7.308C83.8593 7.06 83.5233 6.936 83.0513 6.936C82.6273 6.936 82.2713 7.116 81.9833 7.476C81.6953 7.836 81.5513 8.26 81.5513 8.748V12H80.4473V8.496C80.4473 7.944 80.3473 7.548 80.1473 7.308C79.9473 7.06 79.6113 6.936 79.1393 6.936C78.7153 6.936 78.3593 7.116 78.0713 7.476C77.7833 7.836 77.6393 8.26 77.6393 8.748V12ZM91.1954 10.368C91.1954 10.88 90.9714 11.312 90.5234 11.664C90.0754 12.016 89.5114 12.192 88.8314 12.192C88.2394 12.192 87.7194 12.04 87.2714 11.736C86.8234 11.424 86.5034 11.016 86.3114 10.512L87.2954 10.092C87.4394 10.444 87.6474 10.72 87.9194 10.92C88.1994 11.112 88.5034 11.208 88.8314 11.208C89.1834 11.208 89.4754 11.132 89.7074 10.98C89.9474 10.828 90.0674 10.648 90.0674 10.44C90.0674 10.064 89.7794 9.788 89.2034 9.612L88.1954 9.36C87.0514 9.072 86.4794 8.52 86.4794 7.704C86.4794 7.168 86.6954 6.74 87.1274 6.42C87.5674 6.092 88.1274 5.928 88.8074 5.928C89.3274 5.928 89.7954 6.052 90.2114 6.3C90.6354 6.548 90.9314 6.88 91.0994 7.296L90.1154 7.704C90.0034 7.456 89.8194 7.264 89.5634 7.128C89.3154 6.984 89.0354 6.912 88.7234 6.912C88.4354 6.912 88.1754 6.984 87.9434 7.128C87.7194 7.272 87.6074 7.448 87.6074 7.656C87.6074 7.992 87.9234 8.232 88.5554 8.376L89.4434 8.604C90.6114 8.892 91.1954 9.48 91.1954 10.368Z" fill="#5F6368"/>
<path d="M103.376 10.62C102.952 11.132 102.452 11.524 101.876 11.796C101.3 12.06 100.656 12.192 99.944 12.192C99.304 12.192 98.708 12.076 98.156 11.844C97.612 11.612 97.14 11.296 96.74 10.896C96.34 10.496 96.024 10.024 95.792 9.48C95.56 8.928 95.444 8.336 95.444 7.704C95.444 7.072 95.56 6.484 95.792 5.94C96.024 5.388 96.34 4.912 96.74 4.512C97.14 4.112 97.612 3.796 98.156 3.564C98.708 3.332 99.304 3.216 99.944 3.216C100.632 3.216 101.236 3.336 101.756 3.576C102.284 3.816 102.752 4.164 103.16 4.62L102.02 5.724C101.764 5.428 101.468 5.192 101.132 5.016C100.804 4.84 100.412 4.752 99.956 4.752C99.556 4.752 99.18 4.824 98.828 4.968C98.476 5.104 98.168 5.3 97.904 5.556C97.648 5.812 97.444 6.124 97.292 6.492C97.14 6.852 97.064 7.256 97.064 7.704C97.064 8.152 97.14 8.56 97.292 8.928C97.444 9.288 97.648 9.596 97.904 9.852C98.168 10.108 98.476 10.308 98.828 10.452C99.18 10.588 99.556 10.656 99.956 10.656C100.436 10.656 100.86 10.56 101.228 10.368C101.604 10.168 101.936 9.888 102.224 9.528L103.376 10.62ZM104.367 12V3.408H105.939V12H104.367ZM110.011 5.928C110.467 5.928 110.883 6.008 111.259 6.168C111.643 6.32 111.971 6.536 112.243 6.816C112.523 7.088 112.739 7.416 112.891 7.8C113.051 8.184 113.131 8.604 113.131 9.06C113.131 9.516 113.051 9.936 112.891 10.32C112.739 10.704 112.523 11.036 112.243 11.316C111.971 11.588 111.643 11.804 111.259 11.964C110.883 12.116 110.467 12.192 110.011 12.192C109.555 12.192 109.135 12.116 108.751 11.964C108.375 11.804 108.047 11.588 107.767 11.316C107.495 11.036 107.279 10.704 107.119 10.32C106.967 9.936 106.891 9.516 106.891 9.06C106.891 8.604 106.967 8.184 107.119 7.8C107.279 7.416 107.495 7.088 107.767 6.816C108.047 6.536 108.375 6.32 108.751 6.168C109.135 6.008 109.555 5.928 110.011 5.928ZM110.011 10.74C110.211 10.74 110.403 10.704 110.587 10.632C110.779 10.552 110.947 10.44 111.091 10.296C111.235 10.152 111.347 9.976 111.427 9.768C111.515 9.56 111.559 9.324 111.559 9.06C111.559 8.796 111.515 8.56 111.427 8.352C111.347 8.144 111.235 7.968 111.091 7.824C110.947 7.68 110.779 7.572 110.587 7.5C110.403 7.42 110.211 7.38 110.011 7.38C109.803 7.38 109.607 7.42 109.423 7.5C109.239 7.572 109.075 7.68 108.931 7.824C108.787 7.968 108.671 8.144 108.583 8.352C108.503 8.56 108.463 8.796 108.463 9.06C108.463 9.324 108.503 9.56 108.583 9.768C108.671 9.976 108.787 10.152 108.931 10.296C109.075 10.44 109.239 10.552 109.423 10.632C109.607 10.704 109.803 10.74 110.011 10.74ZM115.5 6.888H115.596C115.78 6.592 116.028 6.36 116.34 6.192C116.652 6.016 117.008 5.928 117.408 5.928C117.776 5.928 118.1 5.988 118.38 6.108C118.66 6.228 118.888 6.4 119.064 6.624C119.248 6.84 119.384 7.104 119.472 7.416C119.568 7.72 119.616 8.06 119.616 8.436V12H118.044V8.628C118.044 8.204 117.948 7.892 117.756 7.692C117.572 7.484 117.3 7.38 116.94 7.38C116.724 7.38 116.532 7.428 116.364 7.524C116.204 7.612 116.064 7.736 115.944 7.896C115.832 8.048 115.744 8.232 115.68 8.448C115.624 8.656 115.596 8.88 115.596 9.12V12H114.024V6.12H115.5V6.888ZM126.482 10.584C126.21 11.064 125.842 11.452 125.378 11.748C124.922 12.044 124.362 12.192 123.698 12.192C123.25 12.192 122.834 12.116 122.45 11.964C122.074 11.804 121.746 11.584 121.466 11.304C121.186 11.024 120.966 10.696 120.806 10.32C120.654 9.936 120.578 9.516 120.578 9.06C120.578 8.636 120.654 8.236 120.806 7.86C120.958 7.476 121.17 7.144 121.442 6.864C121.714 6.576 122.034 6.348 122.402 6.18C122.778 6.012 123.19 5.928 123.638 5.928C124.11 5.928 124.53 6.008 124.898 6.168C125.266 6.32 125.574 6.536 125.822 6.816C126.07 7.088 126.258 7.412 126.386 7.788C126.514 8.164 126.578 8.572 126.578 9.012C126.578 9.068 126.578 9.116 126.578 9.156C126.57 9.204 126.566 9.248 126.566 9.288C126.558 9.328 126.554 9.372 126.554 9.42H122.126C122.158 9.66 122.222 9.868 122.318 10.044C122.422 10.212 122.546 10.356 122.69 10.476C122.842 10.588 123.006 10.672 123.182 10.728C123.358 10.776 123.538 10.8 123.722 10.8C124.082 10.8 124.378 10.72 124.61 10.56C124.85 10.392 125.038 10.184 125.174 9.936L126.482 10.584ZM125.054 8.304C125.046 8.2 125.01 8.084 124.946 7.956C124.89 7.828 124.802 7.708 124.682 7.596C124.57 7.484 124.426 7.392 124.25 7.32C124.082 7.248 123.878 7.212 123.638 7.212C123.302 7.212 123.006 7.308 122.75 7.5C122.494 7.692 122.314 7.96 122.21 8.304H125.054Z" fill="#5F6368"/>
<path d="M7.15908 3.75L9.21562 4.13863L10.9091 3.75L7.15908 0L6.64175 1.77784L7.15908 3.75Z" fill="#56368A"/>
<path d="M7.15909 3.75V0H1.02273C0.457671 0 0 0.45767 0 1.02273V13.9773C0 14.5423 0.457671 15 1.02273 15H9.88637C10.4514 15 10.9091 14.5423 10.9091 13.9773V3.75H7.15909Z" fill="#7248B9"/>
<path d="M2.89778 10.8239C2.61567 10.8239 2.38641 10.5946 2.38641 10.3125C2.38641 10.0304 2.61567 9.80116 2.89778 9.80116C3.17988 9.80116 3.40914 10.0304 3.40914 10.3125C3.40914 10.5946 3.17988 10.8239 2.89778 10.8239ZM2.89778 8.77843C2.61567 8.77843 2.38641 8.54917 2.38641 8.26707C2.38641 7.98497 2.61567 7.7557 2.89778 7.7557C3.17988 7.7557 3.40914 7.98497 3.40914 8.26707C3.40914 8.54917 3.17988 8.77843 2.89778 8.77843ZM2.89778 6.73298C2.61567 6.73298 2.38641 6.50372 2.38641 6.22161C2.38641 5.93951 2.61567 5.71025 2.89778 5.71025C3.17988 5.71025 3.40914 5.93951 3.40914 6.22161C3.40914 6.50372 3.17988 6.73298 2.89778 6.73298ZM8.52277 10.7387H4.26141V9.88639H8.52277V10.7387ZM8.52277 8.6932H4.26141V7.84093H8.52277V8.6932ZM8.52277 6.64775H4.26141V5.79548H8.52277V6.64775Z" fill="white"/>
</svg>
